<svg xmlns="http://www.w3.org/2000/svg" viewBox="0 0 800 600" preserveAspectRatio="xMidYMid slice"><defs><linearGradient id="g" x1="0" y1="0" x2="1" y2="1"><stop offset="0" stop-color="#CFE8FF"/><stop offset="1" stop-color="#7DB9F5"/></linearGradient></defs><rect width="800" height="600" fill="url(#g)"/><circle cx="650" cy="110" r="150" fill="#fff" opacity=".25"/><circle cx="90" cy="520" r="130" fill="#fff" opacity=".18"/><path d="M40 560h720" stroke="#fff" stroke-opacity=".5" stroke-width="3"/><rect x="130" y="330" width="540" height="200" rx="26" fill="#fff"/><rect x="130" y="330" width="540" height="40" rx="20" fill="#1D6FE0"/><rect x="300" y="170" width="200" height="130" rx="14" fill="#0A2342"/><rect x="312" y="182" width="176" height="106" rx="8" fill="#BFE3FF"/><path d="M330 240h30l12-26 18 50 14-34 10 10h60" fill="none" stroke="#1D6FE0" stroke-width="6" stroke-linecap="round"/><rect x="380" y="300" width="40" height="30" fill="#0A2342"/><path transform="translate(660 200) scale(2.2)" d="M-12-36h24v24h24v24H12v24h-24V12h-24v-24h24z" fill="#fff" opacity="0.9"/><circle cx="190" cy="270" r="40" fill="#FFD7C2"/><path d="M130 330c0-50 120-50 120 0z" fill="#FF6F6F"/></svg>