<svg xmlns="http://www.w3.org/2000/svg" viewBox="0 0 800 600" preserveAspectRatio="xMidYMid slice"><defs><linearGradient id="g" x1="0" y1="0" x2="1" y2="1"><stop offset="0" stop-color="#E7FAF3"/><stop offset="1" stop-color="#9FE3C8"/></linearGradient></defs><rect width="800" height="600" fill="url(#g)"/><circle cx="650" cy="110" r="150" fill="#fff" opacity=".25"/><circle cx="90" cy="520" r="130" fill="#fff" opacity=".18"/><path d="M40 560h720" stroke="#fff" stroke-opacity=".5" stroke-width="3"/><path d="M300 130h60v140l70 170c10 30-10 60-40 60H270c-30 0-50-30-40-60l70-170z" fill="#fff"/><path d="M262 400h160l22 50c6 14-4 28-18 28H258c-14 0-24-14-18-28z" fill="#22B07D" opacity=".85"/><rect x="290" y="112" width="80" height="26" rx="10" fill="#0A2342"/><rect x="480" y="200" width="56" height="280" rx="28" fill="#fff"/><rect x="480" y="340" width="56" height="140" rx="28" fill="#FF6F6F" opacity=".85"/><rect x="560" y="260" width="56" height="220" rx="28" fill="#fff"/><rect x="560" y="380" width="56" height="100" rx="28" fill="#1D6FE0" opacity=".85"/></svg>